<?xml version="1.0" encoding="UTF-8" standalone="no"?>
<!DOCTYPE svg PUBLIC "-//W3C//DTD SVG 1.1//EN"
 "http://www.w3.org/Graphics/SVG/1.1/DTD/svg11.dtd">
<!-- Generated by graphviz version 2.43.0 (0)
 -->
<!-- Title: %3 Pages: 1 -->
<svg width="354pt" height="702pt"
 viewBox="0.00 0.00 354.28 702.05" xmlns="http://www.w3.org/2000/svg" xmlns:xlink="http://www.w3.org/1999/xlink">
<g id="graph0" class="graph" transform="scale(1 1) rotate(0) translate(4 698.05)">
<title>%3</title>
<polygon fill="white" stroke="transparent" points="-4,4 -4,-698.05 350.28,-698.05 350.28,4 -4,4"/>
<!-- A -->
<g id="node1" class="node">
<title>A</title>
<polygon fill="lightblue" stroke="lightblue" points="338.9,-694.05 75.21,-694.05 7.38,-618.05 271.07,-618.05 338.9,-694.05"/>
<text text-anchor="middle" x="173.14" y="-659.85" font-family="Times,serif" font-size="14.00">2 convolutional layers</text>
<text text-anchor="middle" x="173.14" y="-644.85" font-family="Times,serif" font-size="14.00">(64 filters) + max&#45;pooling</text>
</g>
<!-- B -->
<g id="node2" class="node">
<title>B</title>
<polygon fill="lightblue" stroke="lightblue" points="346.41,-582.05 70.77,-582.05 -0.14,-506.05 275.5,-506.05 346.41,-582.05"/>
<text text-anchor="middle" x="173.14" y="-547.85" font-family="Times,serif" font-size="14.00">2 convolutional layers</text>
<text text-anchor="middle" x="173.14" y="-532.85" font-family="Times,serif" font-size="14.00">(128 filters) + max&#45;pooling</text>
</g>
<!-- A&#45;&gt;B -->
<g id="edge1" class="edge">
<title>A&#45;&gt;B</title>
<path fill="none" stroke="green" stroke-width="2" d="M173.14,-617.81C173.14,-609.66 173.14,-600.92 173.14,-592.43"/>
<polygon fill="green" stroke="green" stroke-width="2" points="176.64,-592.26 173.14,-582.26 169.64,-592.26 176.64,-592.26"/>
</g>
<!-- C -->
<g id="node3" class="node">
<title>C</title>
<polygon fill="lightblue" stroke="lightblue" points="346.41,-470.05 70.77,-470.05 -0.14,-394.05 275.5,-394.05 346.41,-470.05"/>
<text text-anchor="middle" x="173.14" y="-435.85" font-family="Times,serif" font-size="14.00">3 convolutional layers</text>
<text text-anchor="middle" x="173.14" y="-420.85" font-family="Times,serif" font-size="14.00">(256 filters) + max&#45;pooling</text>
</g>
<!-- B&#45;&gt;C -->
<g id="edge2" class="edge">
<title>B&#45;&gt;C</title>
<path fill="none" stroke="green" stroke-width="2" stroke-dasharray="5,2" d="M173.14,-505.81C173.14,-497.66 173.14,-488.92 173.14,-480.43"/>
<polygon fill="green" stroke="green" stroke-width="2" points="176.64,-480.26 173.14,-470.26 169.64,-480.26 176.64,-480.26"/>
</g>
<!-- D -->
<g id="node4" class="node">
<title>D</title>
<polygon fill="lightblue" stroke="lightblue" points="346.41,-358.05 70.77,-358.05 -0.14,-282.05 275.5,-282.05 346.41,-358.05"/>
<text text-anchor="middle" x="173.14" y="-323.85" font-family="Times,serif" font-size="14.00">3 convolutional layers</text>
<text text-anchor="middle" x="173.14" y="-308.85" font-family="Times,serif" font-size="14.00">(512 filters) + max&#45;pooling</text>
</g>
<!-- C&#45;&gt;D -->
<g id="edge3" class="edge">
<title>C&#45;&gt;D</title>
<path fill="none" stroke="green" stroke-width="2" stroke-dasharray="5,2" d="M173.14,-393.81C173.14,-385.66 173.14,-376.92 173.14,-368.43"/>
<polygon fill="green" stroke="green" stroke-width="2" points="176.64,-368.26 173.14,-358.26 169.64,-368.26 176.64,-368.26"/>
</g>
<!-- E -->
<g id="node5" class="node">
<title>E</title>
<polygon fill="lightblue" stroke="lightblue" points="346.41,-246.05 70.77,-246.05 -0.14,-170.05 275.5,-170.05 346.41,-246.05"/>
<text text-anchor="middle" x="173.14" y="-211.85" font-family="Times,serif" font-size="14.00">3 convolutional layers</text>
<text text-anchor="middle" x="173.14" y="-196.85" font-family="Times,serif" font-size="14.00">(512 filters) + max&#45;pooling</text>
</g>
<!-- D&#45;&gt;E -->
<g id="edge4" class="edge">
<title>D&#45;&gt;E</title>
<path fill="none" stroke="green" stroke-width="2" stroke-dasharray="5,2" d="M173.14,-281.81C173.14,-273.66 173.14,-264.92 173.14,-256.43"/>
<polygon fill="green" stroke="green" stroke-width="2" points="176.64,-256.26 173.14,-246.26 169.64,-256.26 176.64,-256.26"/>
</g>
<!-- F -->
<g id="node6" class="node">
<title>F</title>
<polygon fill="orange" stroke="orange" points="266.3,-103.03 219.72,-134.08 126.56,-134.08 79.98,-103.03 126.56,-71.97 219.72,-71.97 266.3,-103.03"/>
<text text-anchor="middle" x="173.14" y="-106.83" font-family="Times,serif" font-size="14.00">Adaptive Average</text>
<text text-anchor="middle" x="173.14" y="-91.83" font-family="Times,serif" font-size="14.00">Pooling (7x7)</text>
</g>
<!-- E&#45;&gt;F -->
<g id="edge5" class="edge">
<title>E&#45;&gt;F</title>
<path fill="none" stroke="black" stroke-width="2" d="M173.14,-169.86C173.14,-161.5 173.14,-152.59 173.14,-144.12"/>
<polygon fill="black" stroke="black" stroke-width="2" points="176.64,-144.07 173.14,-134.07 169.64,-144.07 176.64,-144.07"/>
</g>
<!-- G -->
<g id="node7" class="node">
<title>G</title>
<polygon fill="red" stroke="red" points="241.14,-36 105.14,-36 105.14,0 241.14,0 241.14,-36"/>
<text text-anchor="middle" x="173.14" y="-14.3" font-family="Times,serif" font-size="14.00" fill="white">Fully connected MLP</text>
</g>
<!-- F&#45;&gt;G -->
<g id="edge6" class="edge">
<title>F&#45;&gt;G</title>
<path fill="none" stroke="blue" stroke-width="2" d="M173.14,-71.58C173.14,-63.34 173.14,-54.48 173.14,-46.42"/>
<polygon fill="blue" stroke="blue" stroke-width="2" points="176.64,-46.41 173.14,-36.41 169.64,-46.41 176.64,-46.41"/>
</g>
</g>
</svg>
